name C:\Users\tom_v\MusculoskeletalSpecialization_revisited\Results\Case_16\motion.mot
datacolumns 32
datarows 13
range 0.12817941 0.18970553
endheader 
time	pelvis_tilt	pelvis_list	pelvis_rotation	pelvis_tx	pelvis_ty	pelvis_tz	hip_flexion_r	hip_adduction_r	hip_rotation_r	knee_angle_r	ankle_angle_r	subtalar_angle_r	mtp_angle_r	hip_flexion_l	hip_adduction_l	hip_rotation_l	knee_angle_l	ankle_angle_l	subtalar_angle_l	mtp_angle_l	lumbar_extension	lumbar_bending	lumbar_rotation	arm_flex_r	arm_add_r	arm_rot_r	elbow_flex_r	arm_flex_l	arm_add_l	arm_rot_l	elbow_flex_l	
          0.12817941	         -6.76421708	          0.85125568	         -0.20577477	          0.41801576	          0.93989306	          0.00233404	         11.60712229	          5.71529709	          6.33890925	        -34.26404345	         15.49246079	         -2.85399081	         24.76033311	         32.97162881	          4.63736487	         -0.46854397	        -54.48152865	         22.63215305	          2.57738701	          3.06127595	        -11.50411770	         -0.21993062	          1.24370200	         19.48334297	          0.28180808	         -2.45987174	          1.93245933	          1.80191591	         -4.41814131	          0.30611283	         50.65158086	
          0.13330659	         -6.78875288	          0.99366604	         -0.16466674	          0.43499761	          0.94150112	          0.00232095	         10.35137256	          5.31919587	          5.92979454	        -33.71607239	         14.17092349	         -2.34574372	         26.18445863	         33.89343635	          4.86129045	         -0.44605344	        -53.53361878	         22.28973457	          2.55334520	          2.86636084	        -11.51061482	         -0.52964284	          1.43743290	         19.50714536	          0.24069971	         -2.58874389	          1.45112505	          1.57941743	         -4.38915266	          0.20670969	         51.77507910	
          0.13843377	         -6.81133960	          1.12902947	         -0.12015493	          0.45206254	          0.94306600	          0.00230435	          9.11011898	          4.92617887	          5.49641242	        -33.18187539	         12.74117451	         -1.80480326	         27.61992135	         34.76770712	          5.07225901	         -0.40990809	        -52.52952299	         21.85124335	          2.54527036	          2.68373249	        -11.50812989	         -0.83445249	          1.62568887	         19.48233339	          0.19334293	         -2.68133287	          1.06118567	          1.38929137	         -4.35163690	          0.12162611	         52.77091921	
          0.14356094	         -6.83185130	          1.25615797	         -0.07152262	          0.46921122	          0.94456950	          0.00228259	          7.88097290	          4.53989179	          5.04747900	        -32.65827776	         11.20898461	         -1.23533716	         29.05965399	         35.59373715	          5.26964963	         -0.35961960	        -51.47222597	         21.32801305	          2.55049308	          2.51249448	        -11.49658920	         -1.13238036	          1.80811772	         19.41234180	          0.14073795	         -2.73664773	          0.75308057	          1.23173297	         -4.30637920	          0.05160502	         53.63780351	
          0.14868812	         -6.85016003	          1.37429269	         -0.01831828	          0.48644368	          0.94599317	          0.00225420	          6.66189416	          4.16434538	          4.59420186	        -32.14351023	          9.58192739	         -0.64472998	         30.49226121	         36.37079763	          5.45343640	         -0.29425720	        -50.36493180	         20.73097381	          2.56647533	          2.35194319	        -11.47591267	         -1.42188071	          1.98452483	         19.30083524	          0.08380495	         -2.75425166	          0.51700558	          1.10684062	         -4.25425493	         -0.00250217	         54.37500267	
          0.15381530	         -6.86612941	          1.48345205	          0.03943303	          0.50375240	          0.94731744	          0.00221781	          5.46097252	          3.80382520	          4.15181916	        -31.65300170	          7.86140018	         -0.04069360	         31.91153884	         37.09881536	          5.62427041	         -0.21314667	        -49.21056832	         20.07074002	          2.59073940	          2.20131032	        -11.44712105	         -1.70203792	          2.15424890	         19.15375163	          0.02365349	         -2.73377045	          0.34176080	          1.01486311	         -4.19632606	         -0.04045797	         54.98382476	
          0.15894247	         -6.87979541	          1.58263918	          0.10178323	          0.52112046	          0.94852280	          0.00217227	          4.29513764	          3.46328962	          3.73621685	        -31.21630741	          6.08064255	          0.58528954	         33.24840868	         37.77839342	          5.78118128	         -0.11688258	        -48.01037652	         19.35936718	          2.62070480	          2.05989231	        -11.41273128	         -1.97063395	          2.31575460	         18.97947080	         -0.03860336	         -2.67467973	          0.21540052	          0.95635703	         -4.13347004	         -0.06314760	         55.46761593	
          0.16406965	         -6.89118624	          1.66694190	          0.16821842	          0.53852657	          0.94959206	          0.00211842	          3.18559338	          3.14637204	          3.35001081	        -30.87045284	          4.31715785	          1.27380488	         34.36002656	         38.41049305	          5.91858253	         -0.00552199	        -46.76533371	         18.60904023	          2.65406059	          1.92715985	        -11.37602152	         -2.22132963	          2.46828662	         18.78729052	         -0.10258641	         -2.57640328	          0.12636818	          0.93213216	         -4.06548146	         -0.07242750	         55.83006277	
          0.16919683	         -6.90046384	          1.73337543	          0.23837643	          0.55595341	          0.95051358	          0.00205914	          2.14891381	          2.85740280	          2.99436705	        -30.64023016	          2.62095554	          2.01673669	         35.12867041	         38.99475464	          6.03287598	          0.12071635	        -45.47434624	         17.83199528	          2.68818786	          1.80239172	        -11.33973965	         -2.45051673	          2.61083905	         18.58451128	         -0.16751688	         -2.43955410	          0.06589246	          0.94299475	         -3.99272621	         -0.06984935	         56.07394753	
          0.17432400	         -6.90771147	          1.78205256	          0.31155490	          0.57339192	          0.95128099	          0.00199571	          1.19232906	          2.59638347	          2.66616825	        -30.52992855	          0.96934406	          2.78990417	         35.57840446	         39.52746804	          6.12367768	          0.26072136	        -44.13430931	         17.04015265	          2.72080609	          1.68517769	        -11.30559731	         -2.65791315	          2.74256701	         18.37569923	         -0.23269714	         -2.26562808	          0.02819774	          0.98932332	         -3.91567803	         -0.05638572	         56.20015374	
          0.17945118	         -6.91288551	          1.81352897	          0.38615833	          0.59083580	          0.95188755	          0.00192777	          0.32378528	          2.36206402	          2.36500891	        -30.54883839	         -0.64156353	          3.57967086	         35.71010325	         40.00419251	          6.19174746	          0.41418589	        -42.74986878	         16.24588229	          2.74913106	          1.57513367	        -11.27468987	         -2.84312977	          2.86294067	         18.16516253	         -0.29780380	         -2.05589972	          0.00784429	          1.07058864	         -3.83441663	         -0.03320643	         56.20963413	
          0.18457836	         -6.91576768	          1.82987436	          0.46049563	          0.60828188	          0.95232573	          0.00185471	         -0.44767598	          2.15327307	          2.09412550	        -30.70820364	         -2.22421868	          4.35958135	         35.53279801	         40.42125799	          6.23998737	          0.58077012	        -41.33492717	         15.45995950	          2.77119254	          1.47218500	        -11.24734245	         -3.00734578	          2.97088160	         17.95651524	         -0.36222109	         -1.81188611	          0.00029666	          1.18529386	         -3.74936660	         -0.00180719	         56.10407056	
          0.18970553	         -6.91590552	          1.83269042	          0.53242392	          0.62573238	          0.95258608	          0.00177365	         -1.11338241	          1.96817346	          1.85426435	        -31.02189209	         -3.75863113	          5.11724268	         35.00734328	         40.77507877	          6.27134648	          0.75963032	        -39.91281971	         14.69249907	          2.78460174	          1.37643947	        -11.22250289	         -3.15055276	          3.06591147	         17.75200410	         -0.42601246	         -1.53526334	          0.00237739	          1.33107737	         -3.66034635	          0.03642259	         55.88442771	
